<svg xmlns="http://www.w3.org/2000/svg" version="1.1" width="600px" height="600px" viewBox="0 0 200 200" style="overflow:hidden!important;"><g id="svga-group-wrapper"><g id="svga-group-backs-single"></g><g id="svga-group-humanwrap-move" transform="matrix(1,0,0,1,0,0)"><g id="svga-group-humanwrap" transform="matrix(0.8999996000000001,0,0,0.8999996000000001,9.970040814604559,11.40812783142546)"><g id="svga-group-hair-back-move" transform="matrix(1,2.856368900253737e-18,-2.856368900253737e-18,1,0,0)"><g id="svga-group-hair-back"></g></g><g id="svga-group-humanbody-back"><path id="SvgjsPath12919" d="M180.8 184.9c-2.3-3.4-38.9-17.8-38.9-17.8l-13.4-5.2-5.6-68.8H76.8L71.3 162l-13.4 5.2S21.4 181.6 19 185c-2.3 3.4-3.3 14.9-3.3 14.9V219h168.5v-19.2c-.1.1-1-11.5-3.4-14.9z" fill="#f0c7b1" stroke-width="none" opacity="1"></path></g><g id="svga-group-chinshadow-single"><path id="SvgjsPath12915" d="M85.7 157.38c2.95 2.5 14.4 2.34 17.66.34 3.2-1.96 8.57-7.52 22.92-23.62l-3.34-41H76.82l-4.05 50.95c6.27 6.89 11.03 11.73 12.93 13.33z" fill="#d19271" stroke-width="none" opacity="1"></path></g><g id="svga-group-humanbody-front"><path id="SvgjsPath12920" d="M184.5 219c-.1-6.4-.1-12.8-.1-19.2l-.3-.1s.1-.1.2 0c.1 0 .1.1.1.1v-.4l-.1-.5-.1-.9-.2-1.9c-.2-1.3-.4-2.5-.6-3.8-.2-1.3-.5-2.5-.9-3.8-.4-1.2-.8-2.5-1.5-3.6-.8-.9-1.9-1.5-2.9-2.1-1-.6-2.1-1.1-3.2-1.7-2.1-1.1-4.3-2.1-6.5-3.1-4.4-2-8.7-3.9-13.1-5.7-4.4-1.9-8.8-3.7-13.2-5.5l-13-5.2-1.2-16.9c-.4-5.7-.9-11.5-1.3-17.2l-1.3-17.2-1.5-17.3-.1-.8h-.8c-7.7 0-15.4.1-23.1.1l-23.1.2h-.5v.5L75 110.2l-1.3 17.2c-.8 11.4-1.8 22.8-2.8 34.2-5.6 2.1-11.2 4.2-16.7 6.4-5.6 2.2-11.2 4.5-16.8 6.9-2.8 1.2-5.6 2.4-8.3 3.6-2.8 1.3-5.5 2.5-8.2 4.1-.7.4-1.3.8-2 1.4-.2.1-.4.4-.5.6l-.3.6c-.2.4-.4.7-.5 1.1-.6 1.5-1 3-1.3 4.5-.6 3-1.1 6-1.4 9.1l-.1 19.1v.9h.9l42.1.1H100c14 0 28.1-.1 42.1-.2l42.1-.5h.3v-.3zm-84.5-1-42.1-.1-41.2.1-.1-18.1c.3-3 .6-5.9 1.2-8.9.3-1.4.6-2.9 1.1-4.2.1-.3.3-.7.4-.9l.2-.4.3-.3c.5-.4 1.1-.8 1.8-1.2 2.5-1.5 5.3-2.8 8-4.1 2.7-1.3 5.5-2.5 8.2-3.7 5.5-2.4 11.1-4.8 16.7-7.1s11.2-4.5 16.9-6.7l.2-.1v-.2c.9-11.5 1.7-23 2.7-34.4l1.4-17.2 1.5-16.7 22.6.2c7.4.1 14.8.1 22.3.1l1.3 16.4 1.5 17.2c.5 5.7 1 11.5 1.5 17.2l1.6 17.2v.3l.3.1 13.4 5c4.4 1.7 8.9 3.4 13.3 5.2 4.4 1.8 8.8 3.7 13.2 5.6 2.2 1 4.3 2 6.5 3 1.1.5 2.1 1.1 3.2 1.6 1 .6 2.1 1.2 2.9 2 .7 1.1 1.1 2.3 1.4 3.5.3 1.2.6 2.5.8 3.7.2 1.3.4 2.5.6 3.8l.2 1.9.1.9.1.5v.4c0 6.3 0 12.6-.1 18.9l-41.8-.5c-14 .1-28.1 0-42.1 0z" fill="#c27b55" stroke-width="none" opacity="1"></path><path id="SvgjsPath12921" d="M125.1 142.4s-1.8 23-9.1 32.9c0 0 7.9-25 9.1-32.9zm-34.5 16s5 7.9 11.5 10.1c0 0-9.5 2.2-11.5-10.1zM73.4 140c6.7 25.6 6.7 25.6 8.5 30.7 0 0 .4-12.6-8.5-30.7z" fill="#d19271" stroke-width="none" opacity="1"></path></g><g id="svga-group-clothes-single"><path id="SvgjsPath12804" d="M10.9 220c0-15.2 1.2-32.2 2.3-34.1 1-1.9 5-3.3 5-3.3s3.5-2.9 7.1-4.8c3.5-1.9 15.7-3.9 15.7-3.9s0-1 .4-1.9 1.9-1.2 5-5.2 2.1-4.8 2.7-6.7c.6-1.9 4.4-1.5 4.4-1.5s.4-6 4.8-10c4.4-3.9 13.6-6.6 13.6-6.6s-.1 6.9-.1 11.3-1.3 4.6 5.1 12.6c6.5 7.9 12.4 15.1 15.4 17 3.1 1.9 7.2 4 9.1 9.5 0 0 1.7-4.4 3.7-5.9s6.2-6 7.9-7.7c1.7-1.7 5.3-8.1 7.5-9.5 2.2-1.5 7.4-6.5 8.3-7.9s-.9-21.7-.9-21.7 6.9 3.7 9.4 5.4c2.5 1.7 4.9 9.5 4.9 9.5s2.4 2.1 5.1 4.1 4.7 2.9 6.2 5.7c1.5 2.8.8 5.3 1.4 6.5.6 1.1 1.2 2 1.6 2.6 0 0 17.1 5.1 20 6.4s5.7 4 5.7 4 3.1 1.9 3.9 9.8 1.8 26.4 1.8 26.4l-177-.1z" fill="#cbd6d8" stroke-width="none" opacity="1"></path><path id="SvgjsPath12805" d="m188.6 219.9-1.2-18.6c-.2-3.1-.4-6.2-.9-9.3-.2-1.6-.6-3.2-1.2-4.7-.3-.8-.7-1.5-1.1-2.2-.2-.4-.5-.7-.8-1-.3-.3-.5-.6-.9-.9-1.5-1.4-3.1-2.6-4.9-3.6-.9-.5-1.9-.9-2.8-1.2l-2.8-1.1-15.3-4.3c-.5-.8-1.1-1.6-1.4-2.4-.1-.3-.2-.8-.2-1.3s-.1-1-.1-1.6c-.2-2.2-1.2-4.3-2.7-5.9-1.6-1.6-3.4-2.6-5.1-3.8-1.6-1.1-3.2-2.4-4.7-3.7-.6-1.7-1.2-3.3-1.9-4.9-.4-.8-.8-1.6-1.3-2.4-.5-.8-1-1.6-1.9-2.2-1.5-1-3.1-1.9-4.7-2.8-1.6-.9-3.2-1.7-4.8-2.6l-.7-.4s.7 11.7 1 17.3c0 1.4.4 3 .3 4.3 0 .2 0 .3-.1.5 0 .1 0 .1-.1.2l-.1.2c-.2.3-.4.5-.6.8-.4.5-.9 1-1.4 1.5-2 2-4 3.9-6.2 5.6-1.1.9-2 2.1-2.8 3.2-.8 1.1-1.6 2.3-2.4 3.4-.4.6-.8 1.1-1.2 1.7-.4.6-.8 1.1-1.4 1.5-1.1.8-3.5 4.2-6.3 6.5-.6.4-1.2.7-1.8 1.3-.5.5-.9 1.1-1.3 1.7-.6.9-1.1 1.8-1.5 2.8-.9-2.2-2.5-4.3-4.4-5.8-1.1-.9-2.2-1.6-3.4-2.4-1.2-.7-2.1-1.7-3.2-2.5-4.4-4-4.4-6-8.3-9.7-1.9-1.9-3.6-4.1-5.2-6.2-.8-1.1-1.7-2.1-2.4-3.2-.8-1.1-1.4-2.2-1.8-3.4-.4-1.1-.2-2.4-.1-3.8l.1-4.1.1-8.1v-1.2l-1.2.3c-2.2.6-4.3 1.4-6.3 2.3-2.1.9-4.1 1.9-6 3.2-1.9 1.3-3.6 3.1-4.6 5.2-1 1.8-1.6 3.8-1.9 5.8-.7 0-1.4.1-2.2.2-.5.1-1 .3-1.5.7-.2.2-.5.5-.6.8-.2.3-.2.6-.3.8-.1.5-.2 1-.2 1.4 0 .4-.1.8-.2 1.1-.2.7-.7 1.5-1.1 2.2-1 1.4-2.1 2.8-3.3 4-.6.6-1.2 1.1-2 1.8-.2.2-.4.4-.6.7-.2.3-.2.5-.3.8-.1.3-.2.6-.2 1-1.5.4-7.5.9-9 1.4-1.6.6-3.2 1.1-4.8 1.8-1.6.7-3.1 1.6-4.5 2.6-1.4.9-2.7 1.9-4 3-1.6.7-3.1 1.4-4.4 2.6-.3.3-.6.7-.9 1.2-.2.5-.2.9-.3 1.3-.2.9-.3 1.7-.4 2.5-.4 3.4-.6 6.7-.8 10.1-.2 3.4-.3 6.7-.3 10.1 0 1.7-.1 3.4-.1 5 0 1.7 0 3.3.1 5.1l43.9.4 44.2.3c14.7.1 29.5.1 44.3.2 14.8 0 29.6.1 44.4 0h1.1l-.1-1.1zm-85-30.9c.4-.6.8-1.1 1.2-1.6.4-.5 1-.8 1.6-1.2 2.4-1.4 3.4-4.9 12.8-9.5 3.2-1.6 6-3.6 8.7-5.7 1.4-1.1 2.7-2.2 4-3.3.6-.6 1.3-1.2 1.8-2s.9-1.6 1.3-2.4c.7-1.7 1.1-3.4 1.2-5.2 0-.4 0-.9-.1-1.4-.1-.4-.2-.9-.4-1.3-.3-.8-.7-1.6-1.2-2.3.3.8.5 1.6.7 2.5.1.8.2 1.6 0 2.4-.3 1.6-.9 3.2-1.7 4.6-.4.7-.8 1.4-1.3 2-.5.6-1.1 1.1-1.7 1.7-1.3 1.1-2.6 2.1-3.9 3.2-1.3 1.1-2.7 2.1-4.1 3.1l-2.1 1.5c-.7.5-1.4.9-2.1 1.4-1.5.9-2.9 1.9-4.4 2.9.1-.1.1-.2.2-.2.4-.6.8-1.1 1.2-1.7.8-1.1 1.6-2.3 2.4-3.4.8-1.1 1.7-2.3 2.7-3.1 2.3-1.6 4.3-3.6 6.3-5.6l1.5-1.5c.2-.3.5-.5.7-.8 0 0 2-2.5 2.4-3.6.5-1.3.8-2.7.7-4.2-.2-1.4-.9-5.1-1.6-6.4-.5-1.1-2-4.9-2.2-7.2 1.4.8 2.7 1.5 4.1 2.3 1.6.9 3.1 1.8 4.6 2.8.6.4 1.1 1.2 1.6 1.9.4.8.8 1.5 1.2 2.4.7 1.6 1.3 3.3 1.9 5l.1.1.1.1c.1 0 .1.1.1.1v.1c0 1.1-.1 2.3-.3 3.4-.3 2.2-1 4.4-1.8 6.5-1.5 4.2-3.9 8.1-7.5 10.4-.9.6-1.8 1.1-2.9 1.7l-3 1.8-5.8 3.6c-1 .6-1.9 1.1-2.9 1.6-.5.2-1 .5-1.5.6-.5.2-1.1.3-1.6.4-2.2.6-4.4 1.2-6.6 1.9 2.3-.3 4.6-.6 6.8-.9.6-.1 1.1-.1 1.7-.3.6-.1 1.2-.3 1.7-.6 1.1-.4 2.1-1 3.2-1.5 2.1-1.1 4-2.3 6-3.4 1-.6 2-1.1 3-1.7 1-.5 2.1-1.1 3-1.8 2-1.4 3.7-3.1 5-5.1 1.3-2 2.2-4.2 2.9-6.5.7-2.2 1.1-4.5 1.2-6.9 0-1 0-2.1-.1-3.1 1.3 1.2 2.7 2.3 4.1 3.3 1.7 1.2 3.5 2.2 4.8 3.6 1.3 1.4 2.1 3.2 2.3 5.2.1.5.1 1 .1 1.5s0 1 .3 1.7c-.8.9-1.6 1.9-2.3 2.8-.9 1.2-1.9 2.3-2.8 3.4-1.9 2.1-4.2 4.2-6.1 6.6 1.5-.6 2.8-1.4 4.1-2.2 1.3-.9 2.5-1.9 3.5-3 1.1-1.2 1.9-2.5 2.6-3.9.5-1 1-2 1.3-3.1.4.8.9 1.6 1.4 2.2l.1.2h.1c-1.5 2.2-3 4.4-4.7 6.6-1.8 2.3-3.7 4.6-5.9 6.4-2.3 1.8-4.8 3.2-7.5 4.3-2.7 1.1-5.4 2.1-8.2 2.9-2.8.8-5.7 1.3-8.6 1.8-2.9.5-5.7 1.2-8.6 1.6-3.4.6-4.8.5-5.1.5 0-1.1-.1-2.1-.3-2.8.6-.3 1.4-.9.1-1.4-1.6-.5-3.1.2-3.1.9-.1.6.5.7 1.1.7.2.6.2 1.3.2 2.1-.3-.1-.6-.3-.8-.5-.5-.4-.9-.8-1.3-1.3-.3-.5-.7-1.1-.8-1.6l-.6-2.1c.6-.9 1.1-2 1.8-3zm-61.9-14.6v-.6c0-.3.1-.8.2-1.1 0-.2.1-.4.2-.4 0-.1.1-.2.3-.3.6-.5 1.4-1.1 2-1.8 1.3-1.3 2.5-2.7 3.5-4.2.5-.8 1-1.6 1.3-2.6.3-1 .3-2 .5-2.7 0-1.1 1.6-1.3 3.1-1.3 0 .6.1 1.1.1 1.7.4 3.3 1.5 6.6 3.1 9.6 1.7 2.9 3.9 5.6 6.5 7.6 2.6 2.1 5.6 3.7 8.7 4.7-2.8-1.8-5.4-3.7-7.7-5.9s-4.3-4.7-5.8-7.4c-.8-1.4-1.4-2.8-2-4.3-.6-1.5-1-3-1.3-4.5-.1-.5-.2-1.1-.3-1.6l.1-.6c.2-2 .9-4.1 1.9-5.9 1-1.9 2.4-3.4 4.1-4.6 1.7-1.2 3.7-2.1 5.7-3 1.6-.7 3.3-1.3 5-1.9 0 0-1.7 4.2-2.2 5.1-.7 1.1-1 2.6-.7 3.9.1.7.3 1.3.6 1.8.2.6.5 1.1.8 1.6.4.7 3 5.6 3.8 6.8.8 1.1 1.7 2.2 2.5 3.3 1.7 2.1 3.6 4.9 5.6 6.8 4.1 4 3.8 6.3 8.3 9.4 1.1.8 2.3 1.5 3.5 2.2 1.2.7 2.3 1.4 3.3 2.2 2.1 1.6 3.7 3.8 4.6 6.3l.1.3-.4 1.1c-.2.6-.5 1.3-.9 1.8-.4.6-.8 1-1.2 1.1-.1 0-.2.1-.4.1h-1.3c0-.1.1-.2.1-.3.3-.6.6-1.2.8-1.5.4.1.9 0 1-.3.2-.5-.6-2.1-1.6-2-.9 0-1.3.3-.5 1.4-.6.6-1.3 1.5-1.8 2.8h-.6c-3.1-.1-6.1-.4-9.2-.7-3.1-.4-6.1-.7-9-1.5-2.9-.8-15.6-7.5-21.2-10-2.8-1.2-5.7-2.4-8.3-4.1-1.3-.9-2.5-1.8-3.5-3-.8-.9-1.6-2.1-1.9-3.3l.5-.2zm102 44.6c-14.7 0-29.3.1-44 .2l-44.2.3-44.5.4c.1-1.6.1-3.3.2-5l.2-5c.1-3.4.3-6.7.6-10.1.2-3.3.6-6.7 1-10 .1-.8.2-1.6.4-2.4.1-.4.2-.8.3-1.1.1-.3.4-.6.6-.8 1.1-1 2.7-1.8 4.2-2.4h.1l.1-.1c1.3-1 2.7-2 4.1-2.9 1.4-.9 2.8-1.8 4.3-2.4 3-1.3 10.9-2.2 14.1-3.1.3 1.3 1 2.4 1.8 3.5 1 1.2 2.2 2.3 3.4 3.2 2.5 1.9 5.4 3.2 8.2 4.5 5.6 2.7 18.2 9.9 21.2 10.8 1.5.4 3.1.8 4.6 1s3.1.5 4.6.7c3.1.4 6.2.6 9.3.8h.2v.1c-.3 2.9 1.6 8.7 2 12.1s-1 6.8-.3 7 2.5.9 2.8-.2c.3-1.1.6-10.9-.9-13.9-.9-1.8-1.3-3.6-1.3-5.1H98.5c.2 0 .5-.1.8-.1 1.1-.3 1.8-1.2 2.3-1.9.1-.1.1-.2.2-.3 0 .1.1.1.1.2.5.7 1.1 1.3 1.8 1.8.6.4 1.2.7 1.8.9-.1.5-.1.9-.2 1.3-.4 1.9-2 3.1-1.2 7.2s3.1 6.1 3.4 7.7c.3 1.6.4 2.9 1 2.9s2.4-.7 2.7-1.6-.8-3.5-2.3-5.4c-1.5-1.9-2.8-4.6-2.8-6.1 0-1.3.9-3.7 1.3-5.7 6.7-.6 11.3-1.8 14.2-2.3s5.8-1.2 8.6-2c2.9-.9 5.6-1.9 8.3-3.2 2.7-1.3 5.3-2.8 7.6-4.8 2.2-2 4.1-4.4 5.8-6.8 1.6-2.2 3-4.5 4.3-6.9h.1l15.4 4.5 2.7 1.1c.9.4 1.8.8 2.6 1.2 1.6.9 3.2 2.1 4.6 3.4l.1.1.6.6.6.9c.4.6.7 1.3.9 1.9.5 1.4.9 2.8 1.1 4.3.4 3 .6 6.1.8 9.2.4 5.8.7 11.7 1.1 17.5-14.5.2-28.8.2-43.1.3zM32.8 203.3c-.3-1.8-1-3.3-1.7-4.7-1.5-2.9-3.2-5.6-5.1-8.2-1-1.3-1.9-2.6-3.1-3.7-1.2-1.1-2.5-2.1-4.1-2.6 1.4.8 2.5 2 3.4 3.2.9 1.2 1.7 2.6 2.6 3.9 1.6 2.7 3.2 5.4 4.6 8.2.7 1.4 1.4 2.8 1.6 4.1.3 1.5.4 3.1.6 4.6.3 3.1.6 6.3 1.1 9.5.4-3.2.5-6.4.4-9.6 0-1.4-.1-3-.3-4.7zm142.4-17.5c-.9.2-1.8.7-2.4 1.4-.6.7-1.1 1.5-1.5 2.2-1.8 2.8-3.6 5.7-5.2 8.7-.4.8-.7 1.6-1.1 2.4-.2.4-.3.8-.4 1.3-.1.4-.2.9-.3 1.3-.2 1.7-.4 3.4-.4 5.1-.1 3.4-.1 6.8.1 10.1.6-3.3 1-6.7 1.5-10 .2-1.6.4-3.3.7-4.9.3-1.5 1-3 1.7-4.4 1.5-3 3.2-5.8 4.7-8.9.4-.8.7-1.5 1.1-2.1.4-.6 1-1 1.7-1.3.7-.3 1.6-.4 2.4-.8.8-.3 1.6-.8 2.2-1.3-.8.4-1.6.6-2.4.8-.7.2-1.5.2-2.4.4z" fill="#89b2b9" stroke-width="none" opacity="1"></path><path id="SvgjsPath12806" d="M173.1 180.5c-3.5-1.5-13.8-3-16.4-4.8 0 0 11.8 6.1 15.9 7.4 4.1 1.3 7.2.9 7.2.9s-3.2-2-6.7-3.5zm-32.6-24.6c0-3.2-2.4-7.4-4.1-9.5s-5.4-3.2-6.9-4.3c0 0 .9.9 2.6 2.8 1.7 1.9 5 6.7 5.6 10.6.6 3.9-2.6 11.3-4.8 14.1s-10.8 7.2-14.8 9.5c-3.9 2.4-7.5 5.6-12.1 8.2s-3 6.9-3 6.9.7-2.6 2.2-4.6 7.3-6.1 11.6-7.4c4.3-1.3 14.3-7.4 18.2-11.1 3.9-3.4 5.5-11.9 5.5-15.2zm3.2 2.2s1.9 3 3.2 4.8c1.3 1.7 2.4 5.9-1.5 12.4s-15 13.2-15 13.2 9.5-4.3 12.6-6.5c3-2.2 8.9-9.5 9.3-11.3.4-1.7-.2-4.8-1.5-6.9-1.2-2.2-6.2-4.8-7.1-5.7zm-59.3 22.6c-3.9-3-11.4-13.2-14.4-17.1-3-3.9-3.2-8-3.5-10.8 0 0-2.4 2.6-2.8 4.8s-.4 5.9 3.2 8.9c3.7 3 17.5 18 22.7 20.4 5.2 2.4 9.3 5.9 9.3 5.9s-1.1-2.6-2.4-3.9c-1.3-1.5-8.2-5.2-12.1-8.2zM60 185.4c3.9 1.5 14.5 6.3 17.3 7.4s15.1 3 15.1 3-11.8-3.9-15.8-5.6c-3.8-1.7-16.6-4.8-16.6-4.8z" fill="#e7e7e7" stroke-width="none" opacity="1"></path></g><g id="svga-group-head" transform="matrix(1,2.856368900253737e-18,-2.856368900253737e-18,1,0,0)"><g id="svga-group-ears-left-move" transform="matrix(1,0,0,1,0,0)"><g id="svga-group-ears-left"><path id="SvgjsPath12819" d="M70.01 81.26s-3.24-4.86-12.55-8.1c0 0-3.1-.67-10.39 10.66 0 0-1.35 5.94 5.13 15.65 0 0 6.34 3.37 16.73-1.21 0 0 4.72-7.69 1.08-17z" fill="#f0c7b1" stroke-width="none" opacity="1"></path><path id="SvgjsPath12820" d="M68.66 90.08s-5.67-8.43-10.93-11.38c0 0-3.51 2.67-6.48 7.73 0 0 2.97 6.89 4.45 8.71 0 0 3.64 1.41 11.2-.56l1.76-4.5z" fill="#e1ac8f" stroke-width="none" opacity="1"></path><path id="SvgjsPath12821" d="M46.91 83.79c-.12.72-.12 1.43-.08 2.13.03.71.12 1.41.22 2.1.23 1.39.63 2.75 1.08 4.08.45 1.34 1.04 2.62 1.65 3.9.32.63.66 1.25 1 1.87l1.1 1.81.05.08.09.04c1.39.67 2.82.98 4.28 1.17 1.46.18 2.94.17 4.4.04 1.46-.13 2.9-.44 4.3-.84.71-.19 1.39-.45 2.08-.68l2.03-.82.13-.05.07-.12c.77-1.34 1.25-2.75 1.64-4.19.39-1.44.58-2.93.62-4.41.04-1.48-.04-2.97-.34-4.41-.21-1.46-.68-2.86-1.19-4.24-.75-1.04-1.67-1.91-2.62-2.75-.96-.83-1.97-1.6-3.03-2.3-1.06-.7-2.17-1.33-3.3-1.9-1.14-.58-2.32-1.04-3.51-1.49l-.03-.01h-.02c-.53-.05-.8.08-1.15.19-.32.12-.62.29-.91.46-.56.36-1.08.76-1.57 1.19-.98.85-1.83 1.83-2.63 2.82-1.61 2-2.97 4.15-4.35 6.28l-.02.03.01.02zm.32.09c.7-1.04 1.4-2.08 2.17-3.07.76-1.01 1.55-1.99 2.39-2.94.84-.93 1.7-1.85 2.64-2.66.47-.4.96-.78 1.48-1.09.26-.16.52-.29.79-.4.24-.1.57-.18.69-.18l1.73.62 1.73.71c1.15.49 2.28 1.03 3.37 1.66 1.08.63 2.15 1.3 3.12 2.09.97.79 1.9 1.66 2.65 2.66.47 1.38.89 2.78 1.07 4.23.2 1.44.19 2.91.05 4.35-.13 1.44-.45 2.86-.87 4.23-.4 1.33-.96 2.63-1.61 3.8l-1.83.73c-.67.21-1.34.46-2.02.64-1.36.38-2.75.65-4.14.82-1.4.15-2.81.18-4.21.04-1.35-.15-2.75-.43-3.95-.95l-1.08-1.65-1.06-1.79c-.66-1.22-1.3-2.46-1.79-3.76-.51-1.29-.92-2.63-1.17-4-.27-1.35-.38-2.76-.15-4.09z" fill="#e1ac8f" stroke-width="none" opacity="1"></path><path id="SvgjsPath12822" d="M52.21 84.06c.46-.6.96-1.16 1.45-1.73 1.01-1.12 2.05-2.19 3.12-3.26l.12-.12.16.12c.9.67 1.74 1.43 2.52 2.24.77.82 1.44 1.71 2.09 2.62 1.27 1.84 2.38 3.77 3.26 5.82l-.08.04c-1.24-1.84-2.49-3.65-3.81-5.4-.66-.87-1.34-1.73-2.03-2.57-.66-.79-1.34-1.57-2.09-2.27-1.1.89-2.11 1.91-3.01 3-.91 1.1-1.7 2.31-2.27 3.59.53 1.19 1.08 2.38 1.66 3.54.53 1.03 1.08 2.07 1.7 3.01.68-.6 1.35-1.23 1.97-1.88.72-.77 1.38-1.61 1.82-2.53-.13-.47-.36-.96-.61-1.42a7.38 7.38 0 0 0-1.01-1.36l.06-.07c.46.35.88.77 1.24 1.23.18.23.35.48.49.74.15.26.28.52.39.83l.02.07-.03.1c-.36 1.14-1.06 2.08-1.76 2.96-.72.89-1.51 1.68-2.37 2.45l-.39.34-.31-.42c-.85-1.16-1.45-2.4-2.02-3.65-.58-1.25-1.09-2.51-1.56-3.8l-.06-.15.07-.12c.38-.72.81-1.35 1.27-1.95z" fill="#c27b55" stroke-width="none" opacity="1"></path></g></g><g id="svga-group-ears-right-move" transform="matrix(1,0,0,1,0,0)"><g id="svga-group-ears-right"><path id="SvgjsPath12823" d="M129.99 81.26s3.24-4.86 12.55-8.1c0 0 3.1-.67 10.39 10.66 0 0 1.35 5.94-5.13 15.65 0 0-6.34 3.37-16.73-1.21 0 0-4.72-7.69-1.08-17z" fill="#f0c7b1" stroke-width="none" opacity="1"></path><path id="SvgjsPath12824" d="M131.34 90.08s5.67-8.43 10.93-11.38c0 0 3.51 2.67 6.48 7.73 0 0-2.97 6.89-4.45 8.71 0 0-3.64 1.41-11.2-.56l-1.76-4.5z" fill="#e1ac8f" stroke-width="none" opacity="1"></path><path id="SvgjsPath12825" d="m153.08 83.76-.02-.03c-1.38-2.13-2.74-4.29-4.35-6.28-.8-1-1.65-1.97-2.63-2.82-.49-.43-1-.84-1.57-1.19-.28-.18-.58-.34-.91-.46-.35-.11-.63-.24-1.15-.19h-.02l-.03.01c-1.19.45-2.38.92-3.51 1.49-1.14.58-2.24 1.2-3.3 1.9-1.06.7-2.07 1.47-3.03 2.3-.95.84-1.86 1.71-2.62 2.75-.51 1.38-.98 2.78-1.19 4.24-.29 1.45-.38 2.93-.34 4.41.04 1.48.23 2.97.62 4.41.39 1.45.87 2.85 1.64 4.19l.07.12.13.05 2.03.82c.69.22 1.38.49 2.08.68 1.41.4 2.84.7 4.3.84 1.46.13 2.94.14 4.4-.04 1.47-.19 2.9-.49 4.28-1.17l.09-.04.05-.08 1.1-1.81c.33-.62.68-1.24 1-1.87.61-1.27 1.2-2.56 1.65-3.9.45-1.33.85-2.69 1.08-4.08.11-.7.19-1.4.22-2.1.04-.71.04-1.41-.08-2.13l.01-.02zm-.43 4.21c-.25 1.37-.65 2.71-1.17 4-.49 1.3-1.13 2.54-1.79 3.76l-1.06 1.79-1.08 1.65c-1.21.52-2.6.81-3.95.95-1.4.14-2.81.11-4.21-.04-1.4-.17-2.78-.44-4.14-.82-.68-.18-1.35-.43-2.02-.64l-1.83-.73c-.65-1.18-1.21-2.48-1.61-3.8-.42-1.38-.74-2.79-.87-4.23-.14-1.44-.15-2.9.05-4.35.17-1.45.6-2.85 1.07-4.23.74-1 1.67-1.88 2.65-2.66.98-.79 2.04-1.46 3.12-2.09 1.09-.62 2.22-1.16 3.37-1.66l1.73-.71 1.73-.62c.11 0 .45.08.69.18.26.12.53.25.79.4.51.31 1.01.68 1.48 1.09.94.81 1.8 1.73 2.64 2.66.83.94 1.63 1.93 2.39 2.94.77.99 1.47 2.03 2.17 3.07.2 1.33.09 2.74-.15 4.09z" fill="#e1ac8f" stroke-width="none" opacity="1"></path><path id="SvgjsPath12826" d="M147.79 84.06c-.46-.6-.96-1.16-1.45-1.73a87.123 87.123 0 0 0-3.12-3.26l-.12-.12-.16.12c-.9.67-1.74 1.43-2.52 2.24-.77.82-1.44 1.71-2.09 2.62-1.27 1.84-2.38 3.77-3.26 5.82l.08.04c1.24-1.84 2.49-3.65 3.81-5.4.66-.87 1.34-1.73 2.03-2.57.66-.79 1.34-1.57 2.09-2.27 1.1.89 2.11 1.91 3.01 3 .91 1.1 1.7 2.31 2.27 3.59-.53 1.19-1.08 2.38-1.66 3.54-.53 1.03-1.08 2.07-1.7 3.01-.68-.6-1.35-1.23-1.97-1.88-.72-.77-1.38-1.61-1.82-2.53.13-.47.36-.96.61-1.42.28-.49.62-.94 1.01-1.36l-.06-.07c-.46.35-.88.77-1.24 1.23-.18.23-.35.48-.49.74-.15.26-.28.52-.39.83l-.02.07.03.1c.36 1.14 1.06 2.08 1.76 2.96.72.89 1.51 1.68 2.37 2.45l.39.34.31-.42c.85-1.16 1.45-2.4 2.02-3.65.58-1.25 1.09-2.51 1.56-3.8l.06-.15-.07-.12c-.38-.72-.81-1.35-1.27-1.95z" fill="#c27b55" stroke-width="none" opacity="1"></path></g></g><g id="svga-group-faceshape-wrap"><g id="svga-group-faceshape-single"><path id="SvgjsPath12901" d="M140.4 54.9c-2.2-10-6.3-16-15.2-20.8-9.3-5-25.2-4.8-25.2-4.8s-15.9-.2-25.2 4.8c-8.8 4.8-13 10.8-15.2 20.8-.9 4 0 13.6 0 13.6s1.6 12.3 1.7 18.2c.2 5.8 1.4 18 2.2 25.1.98 7.08 1.46 7.68 1.46 7.68 12.25 14.4 22.69 25.32 25.74 27.9 2.95 2.5 14.4 2.34 17.66.34 3.46-2.12 9.44-8.42 26.53-27.68 0 0 .27-1.05 1.07-8.15s2.13-16.31 2.54-25.19c.2-5.8 1.7-18.2 1.7-18.2.1-.1 1.1-9.6.2-13.6z" fill="#f0c7b1" stroke-width="none" opacity="1"></path><path id="SvgjsPath12902" d="M140.4 54.9c-2.2-10-6.3-16-15.2-20.8-9.3-5-25.2-4.8-25.2-4.8s-15.9-.2-25.2 4.8c-8.8 4.8-13 10.8-15.2 20.8-.9 4 0 13.6 0 13.6s1.6 12.3 1.7 18.2c.2 5.8 1.4 18 2.2 25.1.98 7.08 1.46 7.68 1.46 7.68 12.25 14.4 22.69 25.32 25.74 27.9 2.95 2.5 14.4 2.34 17.66.34 3.46-2.12 9.44-8.42 26.53-27.68 0 0 .27-1.05 1.07-8.15s2.13-16.31 2.54-25.19c.2-5.8 1.7-18.2 1.7-18.2.1-.1 1.1-9.6.2-13.6zm-.03 10.19-.33 3.24-.06.13c-.55 4.29-1.13 8.57-1.59 12.87-.24 2.14-.41 4.33-.56 6.47-.17 2.14-.39 4.28-.63 6.42-.49 4.28-1.14 8.54-1.72 12.82-.3 2.13-.6 4.3-.86 6.43l-.43 3.2-.23 1.59-.13.78-.08.41-10.86 12.02c-3.72 4.04-7.41 8.17-11.32 11.92-.98.92-1.98 1.83-3 2.6-.25.2-.51.36-.77.54-.14.1-.57.32-.71.37-.53.22-1.14.39-1.76.52-2.52.53-5.25.65-7.89.51-1.32-.09-2.64-.24-3.86-.56-.6-.16-1.19-.36-1.66-.61-.1-.07-.51-.34-.64-.46-.25-.21-.49-.43-.74-.66-1.98-1.83-3.9-3.82-5.82-5.78-3.83-3.94-7.58-7.98-11.27-12.06l-5.53-6.13-1.36-1.54-.68-.77-.17-.19s-.17-.3-.2-.42c-.36-1.24-.61-2.62-.85-3.96-.5-2.7-.79-5.41-1.12-8.16-.31-2.74-.65-5.47-.9-8.22-.26-2.74-.51-5.49-.7-8.23-.21-2.73-.23-5.5-.48-8.26-.21-2.76-.48-5.5-.78-8.25-.27-2.76-.67-5.47-.76-8.21-.12-2.74-.16-5.5.06-8.19.06-.67.14-1.34.28-1.97.14-.64.33-1.31.49-1.97.37-1.31.78-2.6 1.27-3.85.98-2.51 2.25-4.89 3.93-6.95 1.64-2.09 3.68-3.83 5.88-5.34 1.1-.76 2.26-1.43 3.44-2.08 1.16-.62 2.38-1.12 3.64-1.58 2.52-.9 5.16-1.51 7.83-1.97 2.67-.48 5.38-.8 8.09-1 2.72-.21 5.43-.32 8.16-.24 5.45.14 10.94.63 16.2 2.02 2.64.7 5.16 1.68 7.52 3.07 2.36 1.36 4.6 2.96 6.51 4.92 1.86 1.99 3.45 4.26 4.57 6.77 1.14 2.5 1.94 5.14 2.54 7.83.23 1.1.29 2.24.33 3.37.03 1.13.01 2.27-.03 3.4-.1 1.13-.16 2.26-.26 3.39z" fill="#c27b55" stroke-width="none" opacity="1"></path></g></g><g id="svga-group-mouth-single-move" transform="matrix(1,0,0,1,0,0)"><g id="svga-group-mouth-single"><path id="SvgjsPath13007" d="M81.92 117.96s.27 1.88 3.14 5.11 7.53 10.04 8.79 10.67 14.26.99 14.88.99c.63 0 3.68-6.81 4.3-8.88.63-2.06 2.24-6.37 2.06-6.99 0 0-4.66 1.26-7.53 2.06-2.87.81-8.34 1.52-9.24 1.52-.79 0-9.76-2.06-16.4-4.48z" fill="#000000" stroke-width="none" opacity="1"></path><path id="SvgjsPath13008" d="M107.66 120.83c-2.87.81-8.34 1.52-9.24 1.52s-9.86-1.97-16.5-4.39c0 0 .27 1.88 3.14 5.11.72.81 1.61 1.88 2.51 3.05 2.51.63 6.64 1.61 8.88 1.97 0 0 .45-1.26.63-1.34.18-.09.18 1.43.18 1.43s4.12.9 6.55.72c0 0 .63-.45 1.43-.09 0 0 3.95-.54 7.26-1.17.27-.72.54-1.34.63-1.7.63-2.06 2.24-6.37 2.06-6.99 0-.1-4.66 1.07-7.53 1.88z" fill="#ffffff" stroke-width="none" opacity="1"></path><path id="SvgjsPath13009" d="M116.89 118.41c-.54-.54-1.26-1.17-2.24-1.17-.36 0-.54.18-.36.36.09.09.18.27.27.36-2.42.72-4.84 1.34-7.35 1.88-2.78.63-6.01 1.79-8.97 1.79-2.6 0-5.65-.99-8.16-1.61-2.42-.63-4.84-1.43-7.26-2.24.18-.09.36-.09.54-.18.36-.18.45-.54-.09-.63-.72-.18-1.43.09-1.97.36s-.99.72-.72 1.26c.09.18.36.18.54.18.09 0 .09 0 .18-.09.45 1.88 2.51 3.68 3.77 5.38 1.97 2.51 4.03 5.02 5.83 7.62.63.9 1.17 2.24 2.24 2.87.9.54 2.24.54 3.41.63 4.03.27 8.07.45 12.19.45.54 0 .9-.18 1.08-.45 2.87-5.02 4.75-10.31 6.1-15.69.18.36.36.72.81.99.27.18.72.18.9-.09.43-.73-.29-1.54-.74-1.98zm-8.69 15.6c-2.96 0-5.83-.09-8.79-.27-1.34-.09-3.77 0-4.84-.54-.99-.54-1.97-2.15-2.69-2.87-1.7-1.97-3.32-3.95-4.93-5.92-1.43-1.7-3.86-3.95-4.39-5.92 2.24.99 4.66 1.79 7.17 2.51 2.69.81 6.01 1.88 8.88 2.15 2.6.27 5.92-.9 8.25-1.52 2.69-.72 5.38-1.61 7.89-2.6-1.35 5.2-3.68 10.22-6.55 14.98z" fill="#da7c87" stroke-width="none" opacity="1"></path><path id="SvgjsPath13010" d="M116.36 115.54c-.27-.09-.63.09-.36.27.81.54 1.61 1.08 2.24 1.7s.9 1.26 1.43 1.88c.09.18.54.09.54-.09-.09-1.43-1.97-3.05-3.85-3.76z" fill="#e8b9a0" stroke-width="none" opacity="1"></path></g></g><g id="svga-group-eyes-left-move" transform="matrix(1,0,0,1,0,0)"><g id="svga-group-eyes-left"><g id="svga-group-eyesback-left"><path id="SvgjsPath12861" d="M80.2 74.2c7.5 0 13.5 5.8 13.5 13s-6 13-13.5 13-13.5-5.8-13.5-13 6-13 13.5-13z" fill="#ffffff" stroke-width="none" opacity="1"></path></g><g id="svga-group-eyesiriswrapper-left" transform="matrix(1,0,0,1,0,0)"><g id="svga-group-eyesiriscontrol-left" transform="matrix(1,0,0,1,0,0)"><g id="svga-group-eyesiris-left"><path id="SvgjsPath12936" d="M80.2 81.9c2.9 0 5.3 2.4 5.3 5.3s-2.4 5.3-5.3 5.3-5.3-2.4-5.3-5.3 2.4-5.3 5.3-5.3z" fill="#7b5c33" stroke-width="none" opacity="1"></path><path id="SvgjsPath12937" d="M77.4 88.7c0 1.3.5 2.5 1.3 3.3.5.1 1 .2 1.5.2 2.8 0 5.1-2.3 5.1-5.1 0-1-.3-2-.8-2.8-.7-.3-1.4-.5-2.2-.5-2.8.1-4.9 2.3-4.9 4.9z" fill="#8a6d47" stroke-width="none" opacity="1"></path><path id="SvgjsPath12938" d="M80.2 84.5c1.5 0 2.7 1.2 2.7 2.7s-1.2 2.7-2.7 2.7-2.7-1.2-2.7-2.7 1.2-2.7 2.7-2.7z" fill="#000000" stroke-width="none" opacity="1"></path><path id="SvgjsPath12939" d="M79 84.5c.5 0 .9.4.9.9s-.4.9-.9.9-1-.4-1-.9.5-.9 1-.9zm3.1 4.3c.2 0 .4.2.4.4s-.2.4-.4.4-.4-.2-.4-.4.2-.4.4-.4z" fill="#ffffff" stroke-width="none" opacity="1"></path><path id="SvgjsPath12940" d="M80.2 81.6c-3.1 0-5.6 2.5-5.6 5.6s2.5 5.6 5.6 5.6 5.6-2.5 5.6-5.6-2.5-5.6-5.6-5.6zm0 .6c.2 0 .4 0 .7.1h.5-.2c.1 0 .2 0 .2.1.1 0 .1 0 .2.1.2.1.3.2.5.3.1-.1.2-.1.3-.1.1 0 .1.1.2.1.1.1.1.1.1.2.3-.1.6.2.5.5.3-.2.8.3.6.6.2-.1.4 0 .4.2s.1.4-.1.5c.2 0 .5.1.6.3.1.2.1.5-.1.7.2 0 .4.2.5.4s0 .5-.2.6c.2.1.3.3.3.5s-.1.4-.3.5c.2.1.3.3.3.5s-.2.4-.4.4c.3.2.1.8-.2.8.1.1.1.2.1.3-.1.1-.1.3-.2.4s-.2.1-.4.1c.1.4-.3.8-.8.7 0 .2 0 .3-.1.4s-.1.1-.2.1c-.2.1-.3 0-.5-.1 0 .2-.1.4-.3.5-.2.1-.4 0-.6-.2 0 .2-.1.3-.2.4-.2 0-.3.1-.5.1-.1-.1-.3-.2-.3-.3 0 .2-.2.4-.4.4s-.4-.2-.5-.4c-.1.2-.3.3-.6.2H79c-.2-.1-.3-.3-.3-.5-.2.2-.4.2-.6.1s-.3-.3-.3-.5c-.2.1-.5.1-.6 0h-.1c-.2-.2-.2-.4-.1-.7-.2.2-.4.1-.6 0l-.1-.1c-.1-.2-.1-.4 0-.6-.2 0-.4-.1-.6-.2-.4-.7-.7-1.6-.7-2.4.1-2.8 2.4-5 5.2-5zm2 .4s-.1 0 0 0z" fill="#5c3d14" stroke-width="none" opacity="1"></path><path id="SvgjsPath12941" d="M76.5 89.7c.2 0 .3-.1.4-.2.2-.1.3-.2.4-.3v-.1c-.2.1-.3.1-.4.2-.1.2-.3.2-.4.4 0-.1 0 0 0 0zm-1.2-1.5c.1 0 .3 0 .4-.1.2 0 .3-.1.5-.1v-.1c-.2 0-.3 0-.5.1s-.3 0-.4.2c0-.1 0 0 0 0zm.5-2.5c.4.1.8.3 1.2.4 0 0 .1 0 0-.1-.4-.1-.8-.3-1.2-.3 0-.1 0 0 0 0zm.2-.7c.2.2.4.3.7.4 0 0 .1 0 0-.1-.2-.2-.5-.3-.7-.3-.1-.1-.1-.1 0 0zm3.7 6.5c.1-.3.2-.7.2-1 0 0-.1-.1-.1 0-.1.3-.1.7-.1 1zm3.5-4c.3.1.7.1 1.1.1v-.1h-1.1zm.2-.7c.3 0 .7.1 1 0v-.1c-.3 0-.6 0-1 .1zm.2-2.7c-.3.2-.6.5-.9.8 0 0 0 .1 0 0 .3-.2.6-.5.9-.8.1 0 0 0 0 0zm-2.8-1.3c-.1.3-.2.5-.2.8 0 .1.1.1.1 0 .1-.2.1-.5.1-.8zm-2.9.3c.1.2.2.5.3.7h.1c-.1-.2-.3-.4-.4-.7z" fill="#5c3d14" stroke-width="none" opacity="1"></path></g></g></g><g id="svga-group-eyesfront-left"><path id="SvgjsPath12869" d="M80.2 73.7c-7.8 0-14.1 6.1-14.1 13.6s6.3 13.6 14.1 13.6 14.1-6.1 14.1-13.6S88 73.7 80.2 73.7zm-4.9 20.2c-4.8-1.7-6.4-6.7-7.2-10.1-.9-3.5 13.8-3.5 17.5-.4 3.8 3 5.3 7.3 5.5 9.6.1-.1-11 2.6-15.8.9z" fill="#f0c7b1" stroke-width="none" opacity="1"></path><path id="SvgjsPath12870" d="M91.1 92.5c-.1-.5-.1-1-.3-1.4l-.3-.9c-.5-1.9-1.5-4.5-3-6.2-1.2-1.3-4.1-4.4-9-4.4s-8.2 1.6-8.8 1.9c-.2.1-.5.3-.7.5-.4.2-.8.5-1.1 1-.1.2-.1.3-.1.5-.1.1-.1.2-.1.2h.1c0 .1 0 .3.1.4.1.3.2.6.2.9l.6 1.8c.4 1.2.9 2.3 1.6 3.4.7 1.1 1.5 2 2.5 2.8s2.2 1.3 3.4 1.6c2.5.5 5 .3 7.5 0s4.9-.8 7.3-1.5c.2-.2.2-.4.1-.6zm0 .4c-2.4.4-4.9.8-7.3 1.1-1.2.1-2.5.2-3.7.2-1.2 0-2.5 0-3.7-.2-2.4-.4-4.6-1.9-5.8-4-.7-1-1.2-2.2-1.6-3.3-.2-.6-.4-1.2-.5-1.8-.1-.3-.2-.6-.2-.9 0-.2-.1-.3-.1-.4 1.4-.4 6.6-1.9 10.5-1.9 4.5.1 7.9 3.6 9.3 5.1 1.2 1.1 3 5.1 3.1 6.1z" fill="#2a150e" stroke-width="none" opacity="1"></path></g></g></g><g id="svga-group-eyes-right-move" transform="matrix(1,0,0,1,0,0)"><g id="svga-group-eyes-right"><g id="svga-group-eyesback-right"><path id="SvgjsPath12862" d="M119.8 74.2c7.5 0 13.5 5.8 13.5 13s-6 13-13.5 13-13.5-5.8-13.5-13 6-13 13.5-13z" fill="#ffffff" stroke-width="none" opacity="1"></path></g><g id="svga-group-eyesiriswrapper-right" transform="matrix(1,0,0,1,0,0)"><g id="svga-group-eyesiriscontrol-right" transform="matrix(1,0,0,1,0,0)"><g id="svga-group-eyesiris-right"><path id="SvgjsPath12942" d="M119.8 82.5c2.6 0 4.7 2.1 4.7 4.7s-2.1 4.7-4.7 4.7-4.7-2.1-4.7-4.7 2.1-4.7 4.7-4.7z" fill="#7b5c33" stroke-width="none" opacity="1"></path><path id="SvgjsPath12943" d="M117.3 88.5c0 1.1.4 2.2 1.2 2.9.4.1.8.2 1.3.2 2.4 0 4.4-2 4.4-4.4 0-.9-.3-1.8-.7-2.4-.6-.3-1.2-.5-1.9-.5-2.4 0-4.3 1.9-4.3 4.2z" fill="#8a6d47" stroke-width="none" opacity="1"></path><path id="SvgjsPath12944" d="M119.8 84.8c1.3 0 2.4 1.1 2.4 2.4s-1.1 2.4-2.4 2.4-2.4-1.1-2.4-2.4 1.1-2.4 2.4-2.4z" fill="#000000" stroke-width="none" opacity="1"></path><path id="SvgjsPath12945" d="M118.7 84.8c.5 0 .8.4.8.8s-.4.8-.8.8-.8-.4-.8-.8.4-.8.8-.8zm2.8 3.8c.2 0 .3.1.3.3s-.1.3-.3.3-.3-.1-.3-.3.1-.3.3-.3z" fill="#ffffff" stroke-width="none" opacity="1"></path><path id="SvgjsPath12946" d="M119.8 82.3c-2.7 0-4.9 2.2-4.9 4.9s2.2 4.9 4.9 4.9 4.9-2.2 4.9-4.9-2.2-4.9-4.9-4.9zm.9.6zm-.9-.1c.2 0 .4 0 .6.1h.4c.1 0 .2.1.3.1.1.1.3.1.4.2.1-.1.1-.1.2-.1s.2.1.3.1c0 0 .1.1.1.2.2-.1.5.2.5.4.3-.1.7.2.6.5.1 0 .3 0 .4.2.1.1 0 .3-.1.4.2 0 .4.1.5.3.1.2.1.4-.1.6.2 0 .3.1.4.2 0 .1.1.1.1.2 0 .2-.1.3-.2.4.2.1.2.2.3.4v.1c0 .2-.1.3-.3.4.1.1.2.2.2.3v.2c-.1.1-.2.3-.3.3.2.2.1.7-.2.7.1.1.1.2.1.2-.1.2-.2.3-.2.4-.1.1-.2.1-.3.1.1.4-.3.7-.7.7 0 .1 0 .2-.1.3-.1.1-.2.1-.2.2-.1 0-.3 0-.4-.1 0 .2-.1.4-.3.4-.2.1-.4 0-.5-.2 0 .1-.1.3-.2.4-.1 0-.3.1-.4.1-.1-.1-.2-.1-.3-.3 0 .2-.2.3-.4.3s-.4-.1-.4-.3c-.1.2-.3.3-.5.2-.2-.1-.3-.2-.3-.4-.1.1-.4.2-.5.1-.2-.1-.3-.3-.3-.4-.2.1-.4.1-.6 0s-.2-.4-.1-.6c-.2.1-.4.1-.6 0-.1-.2-.2-.4 0-.6-.2 0-.4-.1-.5-.2s-.1-.2-.2-.3c-.2-.6-.4-1.2-.4-1.8-.2-2.4 1.7-4.4 4.2-4.4zm-2.5 8.1zm-1.2-1.2zm.6.6c0 .1 0 .1 0 0 0 .1 0 .1 0 0z" fill="#5c3d14" stroke-width="none" opacity="1"></path><path id="SvgjsPath12947" d="M116.6 89.4c.1 0 .2-.1.4-.2.1-.1.3-.1.4-.2v-.1c-.1.1-.3.1-.4.2s-.3.1-.4.3c-.1-.1 0 0 0 0zm-1.1-1.4c.1 0 .2 0 .4-.1.1 0 .3-.1.4-.1v-.1c-.1 0-.3 0-.4.1s-.3.1-.4.2zm.5-2.1c.3.1.7.2 1 .3 0 0 .1 0 0 0-.3-.2-.7-.3-1-.3-.1-.1-.1 0 0 0zm.1-.7c.2.1.4.3.6.4 0 0 .1 0 0-.1l-.6-.3zm3.3 5.8c.1-.3.2-.6.2-.9 0 0-.1-.1-.1 0-.1.2-.1.6-.1.9-.1 0 0 0 0 0zm3-3.5c.3.1.6.1.9.1-.2-.1-.6-.1-.9-.1zm.2-.6h.8v-.1c-.2 0-.5 0-.8.1 0-.1 0 0 0 0zm.2-2.4c-.3.2-.6.4-.8.7.2-.2.5-.4.8-.7zm-2.5-1.1c-.1.2-.1.5-.1.7h.1v-.7zm-2.5.2.3.6h.1c-.2-.2-.3-.4-.4-.6z" fill="#5c3d14" stroke-width="none" opacity="1"></path></g></g></g><g id="svga-group-eyesfront-right"><path id="SvgjsPath12871" d="M119.8 73.7c-7.8 0-14.1 6.1-14.1 13.6s6.3 13.6 14.1 13.6 14.1-6.1 14.1-13.6-6.3-13.6-14.1-13.6zm5.3 19.5c-4.4 1.8-15 .1-15 .1.1-1.9 1.3-5.8 4.7-8.7 3.4-2.9 17.2-3.8 16.6-.7-.7 3.1-1.9 7.6-6.3 9.3z" fill="#f0c7b1" stroke-width="none" opacity="1"></path><path id="SvgjsPath12874" d="M131.6 84.1s0-1.3-.9-1.7c-.6-.2-4.4-1-9.1-.7-2.6.2-4.6 1.1-6.1 2.1-.3.2-.6.3-.8.5-.9.8-1.7 1.6-2.4 2.6-1.3 1.9-2.3 4.1-2.3 6.4 0 .3.1.8.1.8s.1-.3.2-.7c2.2.4 4.3.7 6.6.8 1.2.1 2.3.1 3.4.1 1.2 0 2.3-.2 3.4-.4s2.2-.8 3.2-1.4c.9-.7 1.7-1.6 2.4-2.5.6-1 1.1-2 1.5-3.1.2-.5.3-1.1.5-1.7l.2-.8c0-.1 0-.1.1-.2v-.1zm-.4.1-.2.8c-.1.6-.3 1.1-.4 1.7-.4 1.1-.8 2.1-1.4 3.1-1.2 1.9-3.3 3.2-5.5 3.6-.6.1-1.1.2-1.7.3-.6 0-1.1.1-1.7.1-1.1.1-2.3.1-3.4 0-2.2-.1-4.4-.2-6.6-.4.4-1.5 1.5-4.6 2.4-5.7 1.2-1.5 4.2-4.5 8.5-4.9 3.6-.3 8.6.8 10 1.2v.2z" fill="#2a150e" stroke-width="none" opacity="1"></path></g></g></g><g id="svga-group-facehighlight-single"></g><g id="svga-group-eyebrows-left-move" transform="matrix(1,0,0,1,0,0)"><g id="svga-group-eyebrows-left-rotate" transform="matrix(1,1.7453292519943295e-9,-1.7453292519943295e-9,1,1.2424926865151065e-7,-1.3638876339427952e-7)"><g id="svga-group-eyebrows-left"><path id="SvgjsPath12790" d="M65.88 71.13c2.13-.71 4.25-1.44 6.39-2.04.53-.16 1.07-.3 1.6-.43.26-.05.53-.12.78-.16.3-.06.38-.04.62-.01.46.09.97.26 1.47.45.5.2 1 .42 1.5.65 1 .46 1.97 1 2.93 1.55.97.54 1.95 1.05 2.96 1.52 2.02.94 4.08 1.8 6.22 2.56l.12-.16c-.77-.89-1.67-1.6-2.58-2.28a30.81 30.81 0 0 0-2.82-1.89 23.88 23.88 0 0 0-3.03-1.53 87.21 87.21 0 0 0-3.18-1.24c-.54-.2-1.08-.39-1.64-.56-.56-.16-1.13-.32-1.78-.39-.18 0-.33-.03-.55.01-.23.02-.33.07-.49.1-.3.07-.57.17-.84.26-.54.19-1.08.39-1.6.6-1.05.43-2.08.88-3.1 1.35-1.02.46-2.04.95-3.04 1.45l.06.19z" fill="#2a232b" stroke-width="none" opacity="1"></path></g></g></g><g id="svga-group-eyebrows-right-move" transform="matrix(1,0,0,1,0,0)"><g id="svga-group-eyebrows-right-rotate" transform="matrix(1,1.7453292519943295e-9,-1.7453292519943295e-9,1,1.2713780961348675e-7,-2.1252871817978303e-7)"><g id="svga-group-eyebrows-right"><path id="SvgjsPath12791" d="M133.43 74.57c-1.92-.89-3.83-1.79-5.77-2.58-.48-.2-.97-.39-1.45-.57-.24-.08-.49-.17-.72-.23-.28-.08-.35-.08-.58-.07-.44.03-.93.14-1.42.27-.49.13-.98.29-1.47.45-.98.33-1.94.73-2.9 1.14-.96.41-1.94.78-2.93 1.11-1.99.66-4.01 1.25-6.09 1.74l-.09-.16c.82-.75 1.73-1.32 2.65-1.87.92-.55 1.87-1.03 2.84-1.47.97-.44 1.97-.81 3-1.12 1.03-.3 2.07-.56 3.11-.83.52-.13 1.05-.25 1.59-.35.55-.09 1.09-.18 1.71-.17.17.02.31.01.52.06.21.04.3.1.45.15.27.1.51.22.76.33.49.23.97.48 1.44.73.94.51 1.85 1.05 2.76 1.59.91.54 1.81 1.1 2.69 1.68l-.1.17z" fill="#2a232b" stroke-width="none" opacity="1"></path></g></g></g><g id="svga-group-beardwrap"><g id="svga-group-beard-single-move" transform="matrix(1,0,0,1,0,0)"><g id="svga-group-beard-single"><path id="SvgjsPath12780" d="M142.1 91.3c-2-4.1-3.8-7.2-4.9-6.9s-1.6 9.7-1.8 12.8-8.1 18.9-10.9 18.9c-3 0-4.2-1.7-5.6-2.6-4.4-2.8-10.6.5-18.5.2-4.6-.2-15-2.8-19.2-.2-2 1.2-3.1 3-6.5 1.8-3.1-1.5-10-13-10.3-17.3s-.8-10.7-1.6-12.5-3 3.6-4.8 7.2c-1.8 3.6-2.6 11.2-3 16.9s-.2 20 14.8 34.3c15 14.3 43.2 12.5 52.9 6.9 11.7-6.8 15.5-12.5 20-25.2 4.6-12.4 1.3-30.2-.6-34.3zm-28.3 44c-2.7 4-14.8 4.4-23.1 1.9-8.3-2.4-9.9-14.3-8.7-17.1 1.2-2.8 13.3-.1 17.9.1 6.6.3 17.1-1.7 17.9 1.4.9 3.2-1.4 9.7-4 13.7z" fill="#a46c47" stroke-width="none" opacity="1"></path><path id="SvgjsPath12781" d="M145.2 111.3c0-.1 0-.1 0 0v-1.4l.3 1.2c0-1.6-.2-3.2-.4-4.9 0-.4-.1-.9-.1-1.3-.2-2.3-.5-4.6-.9-6.9-.4-2.3-.9-4.6-1.9-6.7-.9-1.8-1.7-3.6-2.9-5.3l-.9-1.2c-.2-.2-.4-.3-.6-.4-.2-.1-.6-.2-.8.1-.3.4-.4.9-.5 1.4l-.3 1.5c-.3 2-.4 4-.6 6l-.2 3c0 .5 0 1-.2 1.5-.1.5-.3.9-.4 1.4-1.4 3.7-3.2 7.3-5.3 10.7-1 1.7-2.1 3.4-3.5 4.8-.3.3-.7.7-1.1.9-.1 0-.2.1-.3.1h-.3c-.2 0-.5 0-.7-.1-.9-.1-1.8-.5-2.6-1s-1.5-1.3-2.5-1.8c-.9-.5-2-.8-3-.9-2.1-.2-4.1.1-6.1.4-3.9.6-7.9 1.2-11.8.6-3.9-.5-7.9-1.2-12-1-1 .1-2 .2-3 .5s-2 .8-2.8 1.4c-.8.6-1.6 1.2-2.5 1.4-.9.2-1.8 0-2.8-.2-.9-.5-1.7-1.4-2.5-2.2-.8-.9-1.4-1.8-2.1-2.8-1.3-1.9-2.5-3.9-3.5-6s-2-4.2-2.2-6.5l-.6-6.9c-.1-1.2-.3-2.3-.5-3.5-.1-.6-.2-1.2-.5-1.7-.1-.1-.2-.3-.3-.4-.2-.1-.4 0-.6.1-.3.2-.5.4-.6.7-1.3 2-2.2 4.1-3.2 6.2-1.1 2.1-1.7 4.4-2.1 6.7-.1.3-.1.7-.2 1-.3.8-.6 1.7-.8 2.6.2-.2.3-.5.5-.7-.1.6-.2 1.2-.2 1.8-.1.4-.2.8-.3 1.1-.5 1.9-.8 3.9-.7 5.9.2-.8.4-1.7.6-2.5-.1 1.6-.2 3.1-.2 4.7v1.5c0 .8.1 1.5.2 2.2 0 .2 0 .3.1.5.1.6.2 1.3.3 1.9 0 .2 0 .3.1.4 0 .1 0 .2.1.4.1.4.2.9.3 1.3 0 .2.1.4.1.6.1.5.2.9.4 1.4v.2c.2 2.4.8 4.8 1.8 7-.2-1.1-.5-2.3-.6-3.4.6 1.5 1.2 3 2 4.4.5 1 1.1 2 1.7 3 .2.6.5 1.1.8 1.6.7 1.2 1.4 2.4 2.2 3.4-.3-.6-.6-1.2-.8-1.8.3.4.5.7.8 1 .1.1.1.2.2.3.7.8 1.3 1.6 2 2.4l.2.2c.6.6 1.1 1.2 1.7 1.8l.7.7c.1.1.3.2.4.4.3.2.5.5.8.7.2.2.4.3.6.5.5.4 1 .9 1.6 1.4.6.6 1.4 1 2.1 1.5.7.4 1.4 1 2.2 1.4.7.4 1.4.7 2.1 1.1.9.6 1.8 1.1 2.7 1.6 1.3.6 2.7 1.2 4.1 1.5-.9-.4-1.8-.9-2.6-1.4l2.7.9c.2.1.4.1.6.2.3.1.6.2.9.2.6.1 1.1.3 1.6.4.1 0 .2 0 .3.1.1 0 .2 0 .3.1.6.1 1.1.3 1.7.4l1.6.2.9.1c.4.1.8.1 1.3.2l1.3.1 2.5.2 2.5.1h2.6c.8 0 1.7 0 2.5-.1 1.7-.1 3.4-.2 5.1-.5 3.3-.5 6.7-1.2 9.9-2.5.8-.4 1.6-.8 2.3-1.1l2.2-1.3h.1c-.2.2-.5.5-.8.7 1.3-.8 2.4-1.6 3.6-2.6l.1-.1 1.2-.9c.2-.2.4-.3.6-.5.3-.2.6-.4.8-.7.3-.2.6-.5.8-.7l.6-.6.9-.9c.2-.2.4-.5.7-.7.2-.2.4-.4.6-.7.2-.2.3-.4.5-.6.3-.3.5-.7.8-1 .1-.1.2-.3.3-.4-.1.1-.1.2-.1.3-.7 1.4-1.4 2.7-2.2 4.1 1-1.2 1.9-2.5 2.7-3.8.8-1.3 1.5-2.7 2.1-4.2.1-.3.2-.7.4-1 .6-1.2 1.2-2.4 1.7-3.6.1-.3.2-.6.4-.9.1-.1.1-.2.2-.4s.2-.5.3-.7c-.2.7-.5 1.5-.8 2.2.7-1.1 1.3-2.3 1.8-3.5.5-1.2.9-2.5 1.2-3.8.2-1 .4-1.9.4-2.9.1-.3.1-.6.2-.9 0-.1 0-.2.1-.3 0-.1 0-.2.1-.2-.1 1.8-.3 3.6-.4 5.4.7-2.3 1.1-4.6 1.2-7 .1-1.5 0-3-.1-4.5-.5-1.2-.4-2.3-.4-3.4zM58.4 92.2c1-2.1 1.9-4.3 3.1-6.2.3-.4.8-1 1-.4.2.5.3 1.1.5 1.6.2 1.1.3 2.3.5 3.4l.6 6.9c.2 2.4 1.2 4.5 2.2 6.6 1 2.1 2.2 4.1 3.5 6.1.7 1 1.3 1.9 2.1 2.8.8.9 1.5 1.8 2.6 2.4 1 .3 2 .6 3.1.3 1.1-.2 1.9-.9 2.8-1.5.8-.6 1.6-1.1 2.5-1.3.9-.2 1.9-.4 2.9-.4 3.9-.1 7.9.6 11.8 1.1 4 .6 8.1.1 12-.6 2-.3 3.9-.6 5.9-.4 1 .1 1.9.3 2.7.8.8.4 1.5 1.1 2.4 1.7.8.6 1.9 1 2.9 1.1h.8c.1 0 .3 0 .5-.1.1-.1.3-.1.4-.2.5-.3.9-.7 1.2-1 1.4-1.5 2.4-3.2 3.5-5 2-3.5 3.8-7.1 5.1-10.9.2-.5.3-1 .4-1.5.1-.5.1-1 .1-1.5l.1-3c.1-2 .3-4 .6-6 .1-.5.1-1 .3-1.5.1-.5.2-1 .5-1.4.1-.2.4-.1.6-.1.2.1.4.2.6.4.4.3.7.7.9 1.1 1.1 1.7 2 3.4 2.9 5.2.9 2.1 1.4 4.4 1.8 6.7.4 2 .6 4 .8 6v.3c0-.2-.1-.3-.1-.5-.1-.3-.2-.6-.2-.9-.6-2.2-1.3-4.4-2.4-6.4.6 2.4 1.2 4.8 1.8 7.3.4 1.6.8 3.3 1.1 4.9v2.5c0 .5 0 1-.1 1.5-.1-.2-.1-.5-.1-.8v1.2c-.1-1.5-.3-3-.7-4.5-.1 2.1 0 4.1-.1 6.1 0 1.3 0 2.6-.1 3.9l-.3 2.4c-.1.8-.3 1.6-.4 2.4-.2.7-.4 1.3-.6 2-.7 1.9-1.4 3.8-2.2 5.6.2-1.1.4-2.2.5-3.3h-.1c-.4 1.5-.8 3-1.3 4.4-.3 1-.7 1.9-1 2.9-1.4 2.6-3.1 5.1-5.1 7.3l.6-.9c.8-1.2 1.5-2.5 2.1-3.9-.9 1.2-1.7 2.4-2.6 3.6-.9 1.1-1.8 2.3-2.8 3.4-.4.4-.8.9-1.2 1.3-.8.6-1.6 1.2-2.5 1.8-.9.7-1.9 1.3-2.9 1.9l-1.5.9c-.5.3-1 .5-1.5.8l-.8.4-.8.3-1.6.6c-1.1.3-2.2.7-3.3.9-2.2.5-4.5.8-6.8 1-4.4.4-8.9.3-13.4-.2-.3 0-.6-.1-.9-.1-.2 0-.5-.1-.7-.1-.3-.1-.7-.1-1.1-.2-.7-.1-1.3-.2-1.9-.4-1.2-.2-2.3-.5-3.5-.8-.1 0-.2-.1-.4-.1-.1-.1-.3-.1-.4-.2-2.2-1-4.4-2.1-6.5-3.4.8.8 1.7 1.4 2.6 2.1-.3-.1-.6-.2-.9-.4-.5-.2-1.1-.4-1.6-.7-.1-.1-.2-.1-.4-.2-.9-.7-1.9-1.4-2.8-2.2-1.1-.9-2.1-1.8-3.1-2.8-.4-.5-.8-.9-1.3-1.4.1.1.2.3.2.4-.9-.9-1.8-1.8-2.6-2.8-1-1.2-2-2.4-3-3.7.7 1.4 1.6 2.8 2.6 4 .9 1.3 2 2.5 3.2 3.6.7.6 1.3 1.2 2 1.8 0 .1.1.1.1.1l.4.4c-1.2-.8-2.4-1.7-3.6-2.7.4.3.9.7 1.4 1-1.7-1.8-3.3-3.5-4.9-5.3-.9-1-1.7-2.1-2.6-3.2-1-1.9-1.9-3.9-2.7-5.9 0 .2.1.4.1.6 0 1.4.4 2.8.8 4.1-.7-.9-1.3-1.8-1.8-2.8-.2-.5-.4-1-.5-1.4v-.1l.6.9c-.8-2.2-1.5-4.3-2.1-6.4-.6-2.2-1.1-4.4-1.6-6.6-.1 2.3.3 4.6.9 6.8.2.5.3 1 .5 1.5v.3c.1.6.2 1.1.4 1.6v-.1c-.7-1.5-1.4-3-1.9-4.6v-.1c-.1-.4-.3-.8-.4-1.2 0-.1-.1-.3-.1-.4v-.2c-.2-2.4-.2-4.7-.1-7.2-.4 1.4-.6 2.8-.7 4.3-.6-2.8-.9-5.8-.9-8.7.1-2.2.2-4.4.4-6.6.5-1.9 1.1-3.7 1.7-5.6-.5.8-1 1.6-1.3 2.4 0-.4.1-.7.2-1.1.3-.5.5-1.1.8-1.6.5-1.2 1-2.4 1.2-3.7-.6.8-1.1 1.8-1.6 2.7 0-.1.1-.3.1-.4.5-1.1 1-2.9 1.9-4.6zm26.4 26.4c-.5.1-1 .1-1.5.3-.5.2-1 .4-1.4.9-.3.5-.3 1-.4 1.5-.1.5-.1 1-.1 1.5 0 .8.1 1.6.2 2.3-.1-.6-.3-1.1-.4-1.7 0 .4 0 .8.1 1.3-.2-.5-.4-1-.6-1.6.1 1.2.4 2.5.8 3.7.1.3.1.7.2 1 .3 1.4.8 2.8 1.4 4.2.6 1.4 1.3 2.6 2.2 3.9.8 1.2 1.8 2.3 2.9 3.3-.9-1.2-1.7-2.4-2.4-3.6-.6-1.1-1.2-2.2-1.7-3.3.4.6.8 1.3 1.3 1.9.3.3.6.7.9 1 .1.1.1.1.1.2 1 1.1 2.2 2.1 3.4 3-.5-.5-1-1.1-1.5-1.6.7.4 1.4.7 2.1.9 3.9 1.2 8 1.6 12.1 1.4 2-.1 4.1-.4 6-.9 1-.3 1.9-.6 2.9-1 .9-.5 1.8-1 2.4-1.9 1.1-1.7 2-3.5 2.8-5.4.8-1.9 1.4-3.8 1.7-5.8.1-.5.1-1 .1-1.6 0-.3 0-.5-.1-.8 0-.2-.2-.6-.3-.8-.4-.5-.9-.8-1.4-1-.5-.2-1-.3-1.6-.4-2.1-.3-4.1-.2-6.1-.1l-4.1.2c.1-.6.1-1.2-.1-1.8-.2-.7-.6-1.4-1.2-1.8.1.8.3 1.4.5 2 .2.5.3 1 .6 1.6l-1.7.1c-1 0-2 .1-3 0-.5 0-1-.1-1.5-.1.5-.8.8-1.6.9-2.4.2-.9.2-1.8 0-2.8-.4.9-.5 1.8-.7 2.7-.2.8-.3 1.7-.3 2.6-.4-.1-.9-.1-1.3-.2-2-.2-4-.5-6-.7s-4.2-.4-6.2-.2zm24.1 1.8c2-.1 4-.2 5.9 0 .9.1 2 .3 2.4.9.2.3.3.8.3 1.2v1.5c-.3 3.9-1.8 7.8-3.9 11.2-1.2 1.6-3.3 2.3-5.2 2.7-2 .4-4 .5-6 .5-4-.1-8-.6-11.8-1.6-1.5-.4-2.9-1.2-4.1-2.2-.8-1.1-1.6-2.1-2.3-3.3-.7-1.1-1.3-2.3-1.9-3.6-.5-1.6-.7-3.2-.8-4.9 0-1 .1-2 .5-2.8.2-.3.7-.5 1.2-.7.5-.1.9-.2 1.4-.2 2-.1 4 .2 5.9.4 2 .2 4 .6 6 .8 4.3.8 8.4.4 12.4.1zm-52.2-18.6c-.7 1.3-1 2.8-1.2 4.3-.2 1.5-.2 3 .2 4.4.2-1.5.4-2.9.5-4.3.2-1.5.4-2.9.5-4.4zm21.8 45.8c1.1.9 2.2 1.6 3.3 2.3 1.2.7 2.4 1.3 3.6 1.9s2.5 1 3.8 1.3l-3.6-1.8c-1.2-.6-2.4-1.3-3.5-2-1.2-.7-2.3-1.4-3.4-2.1-1.1-.8-2.2-1.5-3.3-2.3 1 .9 2 1.8 3.1 2.7zM61 126.4c.5 1.3 1 2.5 1.7 3.7.7 1.2 1.4 2.4 2.2 3.4-.6-1.2-1.2-2.4-1.7-3.7-.5-1.2-1-2.5-1.5-3.7-.5-1.3-.9-2.5-1.2-3.8-.4-1.3-.7-2.6-1-3.9 0 1.4.2 2.7.5 4.1.1 1.3.5 2.6 1 3.9zm5.9 8.8c-.6-1.5-1.3-3-1.9-4.5-.6-1.5-1.1-3-1.8-4.6 0 1.7.5 3.3 1.1 4.9.6 1.5 1.4 2.9 2.6 4.2zm3.2 2.3c.5 1.3 1 2.5 1.7 3.7.7 1.2 1.4 2.4 2.2 3.4-.6-1.2-1.2-2.4-1.7-3.7-.5-1.2-1-2.5-1.5-3.7-.5-1.3-.9-2.5-1.2-3.8-.4-1.3-.7-2.6-1-3.9 0 1.4.2 2.7.5 4.1.2 1.3.6 2.6 1 3.9zm5.9 8.7c-.6-1.5-1.3-3-1.9-4.5-.6-1.5-1.1-3-1.8-4.6 0 1.7.4 3.3 1.1 4.9.7 1.5 1.5 3 2.6 4.2zm-20-35.4c0 .7 0 1.5.2 2.2.4-.7.5-1.4.6-2.1 0-.7 0-1.5-.2-2.2-.4.7-.5 1.4-.6 2.1zm27.7 5c1.6-.9 3.4-1.2 5.2-1.8-1.9-.1-3.8.2-5.6 1.1-.9.5-1.6 1.1-2.2 1.9-.6.8-.9 1.8-.9 2.7.2-.9.7-1.7 1.3-2.3.7-.6 1.4-1.2 2.2-1.6zM85 118c1.5-.8 3-1.7 4.5-2.4s3.1-1.3 4.7-2c-1.7.1-3.4.6-5 1.3-1.6.8-3 1.8-4.2 3.1zm6.9.6c.8-.7 1.4-1.3 2.2-1.9.7-.6 1.4-1.2 2.2-1.9-1 .1-1.9.6-2.7 1.3-.8.6-1.4 1.5-1.7 2.5zm25.9-.3c1 1.7 1.6 3.6 1.8 5.6.4-2-.1-4.2-1.1-6-1-1.8-2.6-3.3-4.5-4.1 1.6 1.3 2.8 2.8 3.8 4.5zm4.3 3.4c0-1.5-.4-2.9-1.1-4.2-.7-1.3-1.6-2.5-2.8-3.4.8 1.3 1.5 2.4 2.1 3.7.7 1.2 1.2 2.5 1.8 3.9zm-43.9-1.9c.3-1.5.8-2.9 1.4-4.3-1.1 1.1-1.8 2.6-2.2 4.2-.3 1.6-.2 3.2.4 4.7.1-1.6.1-3.1.4-4.6z" fill="#955932" stroke-width="none" opacity="1"></path></g></g></g><g id="svga-group-mustache-single-move" transform="matrix(1,0,0,1,0,0)"><g id="svga-group-mustache-single"></g></g><g id="svga-group-nose-single-move" transform="matrix(1,0,0,1,0,0)"><g id="svga-group-nose-single"><path id="SvgjsPath12995" d="M91.34 109.69s-1.67 3.06.49 3.96c2.15.9 2.71-.76 3.47-1.32s1.74.21 2.36 1.81c.63 1.6 4.58 1.67 5.21.83.63-.83.9-1.94 1.94-2.29 1.04-.35 1.53 1.53 2.43 1.74.9.21 3.2-.21 1.53-4.79-1.67-4.58-5.35-9.1-8.2-9.03-2.84.06-6.87 4.58-9.23 9.09z" fill="#e8b9a0" stroke-width="none" opacity="1"></path><path id="SvgjsPath12996" d="M91.38 109.72c-.26.52-.46 1.08-.54 1.65-.06.56-.04 1.19.32 1.61.34.43.91.61 1.44.69.27.02.53.02.77-.06s.45-.22.64-.4c.19-.18.36-.4.55-.63.19-.23.38-.5.76-.69.19-.09.41-.13.62-.12.21.02.41.08.57.17.34.18.58.43.79.69.2.26.37.53.51.82.07.14.13.29.19.43l.04.11.04.07.07.13c.26.33.74.59 1.26.74.52.15 1.08.24 1.63.25.28 0 .56-.01.82-.05.26-.04.53-.12.7-.23.06-.04.16-.15.24-.27.08-.11.16-.23.24-.36.16-.24.31-.5.49-.75.35-.49.84-.99 1.56-1.01.37.02.64.26.85.48.21.23.38.47.57.69.18.22.38.43.6.55.21.11.52.11.77.07.54-.07.97-.47 1.12-.98.17-.51.13-1.08.04-1.63-.21-1.11-.68-2.18-1.17-3.23-.5-1.04-1.09-2.04-1.73-2.99-.65-.94-1.39-1.84-2.21-2.6-.82-.75-1.75-1.45-2.74-1.67-.95-.26-2 .2-2.94.8-.94.61-1.83 1.35-2.66 2.16-1.65 1.6-3.11 3.48-4.21 5.56zm-.08-.05c1.1-2.08 2.32-4.11 3.83-5.96.76-.92 1.6-1.79 2.61-2.5.5-.36 1.06-.66 1.67-.88.6-.23 1.34-.29 2-.14 1.32.31 2.33 1.11 3.21 1.95.87.86 1.62 1.82 2.27 2.82.66 1.01 1.21 2.07 1.68 3.18.46 1.1.84 2.25.99 3.46.06.6.07 1.24-.17 1.85-.22.61-.82 1.09-1.46 1.15-.32.03-.63.04-.96-.12-.3-.16-.5-.41-.69-.64-.19-.23-.36-.47-.56-.67-.19-.2-.41-.37-.65-.37-.22-.01-.49.14-.69.3a2.5 2.5 0 0 0-.53.63c-.15.24-.27.5-.41.76-.07.13-.14.26-.22.4-.08.13-.15.26-.32.41-.3.24-.61.33-.92.41-.31.07-.62.11-.93.13-.62.03-1.24 0-1.86-.15-.6-.16-1.26-.4-1.74-1-.05-.08-.1-.17-.15-.25l-.07-.13-.04-.09c-.05-.13-.11-.25-.17-.37-.12-.24-.25-.48-.41-.68-.31-.41-.72-.7-1.01-.56-.16.05-.36.26-.56.46-.2.21-.42.44-.68.63-.26.2-.56.36-.9.43-.33.07-.66.04-.98-.02-.31-.08-.59-.18-.87-.33-.14-.08-.28-.15-.39-.27l-.17-.16-.14-.2c-.36-.54-.35-1.2-.25-1.78.16-.61.36-1.17.64-1.7z" fill="#c27b55" stroke-width="none" opacity="1"></path></g></g><g id="svga-group-hair-front"><path id="SvgjsPath13113" d="M52.6 63.6s-2.3 16.1-12.4 22.2c0 0 4.2-.4 6.9-2.3 0 0-1 8.2 4.2 14.9 0 0-3.2-8.4-1.2-14.4s6.5-11.7 6.5-11.7 3.2 5.9 4.4 11.9c1.2 5.9.2 10 .2 10s4.4-13.6 2.3-20.9S62.3 54 62.3 54s6 3 10.9 3c0 0-6.3-3.1-7.5-6.9 0 0 6.3-1.5 12.4-.4 6.1 1.2 9.2 3.8 9.2 3.8s-4.8-6.3-11.1-8.4c0 0 13.8 0 22.2-3.1 0 0 2.3 2.3 8.8 2.1 6.5-.2 7.7-1.5 12.4-1.2s12.6 3.6 14.2 8.6 1.5 11.3 3.8 14.6c0 0-.2 11.1-3.2 14 0 0 2.7-3.2 3.6-6.1 0 0 6.5 10.9 14.9 13.4 0 0-4.8-5.6-5.6-8 0 0 9.4 4.8 10.5 12.2 0 0 .2-9.2-7.1-19 0 0 3.4 1.7 8.2.6 0 0-7.7-6.7-9.6-13.4 0 0 3.6 2.9 7.9 3.5 0 0-9.2-9-10.1-13.6 0 0 3.4-.6 7.1 1.5 0 0-2.7-9.6-12.4-15.5 0 0 3.6-1.3 5.2-3.6 0 0-8.8 2.5-12.6 2.3 0 0 2.3-3.8 3.6-8.2 0 0-8.6 2.9-13.8 1.5 0 0 5.4-6.5 6.7-9.6 0 0-14.9 7.1-22.8 5 0 0 11.7-8.8 14-14.4 0 0-18.4 8.8-25.1 9.2l1.5-2.9-5.9 3.1 1.3-2.1-3.1.2S78.9 21 73.6 28.8c0 0 2.7-6.5 2.9-12.2 0 0-2.7 3.1-5.4 5.4s-9.7 13.4-10.9 15-3.6 7-3.6 7-.6-9.8-5.4-13c0 0 4 5.7 3.5 16.3 0 0-3.6 5-11.9-2.7 0 0 1.2 6.3 10.9 6.5 0 0-8.4 6.3-8.6 18.4 0 0 2.9-7.1 7.5-5.9z" fill="#543c32" stroke-width="none" opacity="1"></path><path id="SvgjsPath13114" d="M129.9 19.4C118.8 36 96.3 45.7 76.5 44.7c-.4 0-.4.6 0 .6 10.8 1.2 21.9-2.5 31.7-6.8 8.8-3.9 18-9.8 22.3-18.8.2-.3-.3-.7-.6-.3zm-17.1 4.8c6.4-.1 12.9-2 18.2-5.8.3-.2 0-.7-.3-.5-5.7 3.2-11.3 5.3-17.9 5.8-.3.1-.3.5 0 .5zm22.5 8c.3-.2 0-.7-.3-.5-5.1 3.1-10.2 6-15.8 8.1-5.3 2.1-12.3 4.8-18 3.4-.4-.1-.5.5-.2.6 5.4 1.9 11.7-.7 16.8-2.5 6.2-2.2 12.2-5.1 17.5-9.1zm8.8 22.8c.2.3.6 0 .4-.3-5.2-9.5-16.8-12.7-27-12-.3 0-.3.5 0 .5 10.6.8 20 2.8 26.6 11.8zM158 72.8c.4.1.6-.5.3-.6-10-5.1-17.9-11.3-24.3-20.6-.2-.3-.6 0-.4.2 5.1 9.4 14.1 17.6 24.4 21zm-16.3-5.9c-.3-.2-.6.1-.4.4 4 4.3 10.4 6.2 16.1 6.4.4 0 .5-.7.1-.8-5.8-1.2-11.1-2.1-15.8-6zm11.2 19.9c-6.1-3.3-10.8-7.3-14.1-13.6-.2-.3-.7-.1-.6.2 2.6 6.2 7.9 11.9 14.4 14 .4.2.6-.4.3-.6zm-59-57.7c-.4.1-.2.7.2.6 11.8-3 24.1-11.1 29.5-22.3.1-.2-.2-.4-.4-.2-7.9 10.5-16.4 18.1-29.3 21.9zm4.7-10.6c7.8-2 15.7-4.4 22.4-8.9.3-.2 0-.6-.3-.5-7.1 4-14.6 6.4-22.2 9-.3 0-.2.4.1.4zM80 28.9c-.2.3.2.6.4.4 5.2-5.8 11-10.1 17.8-13.9.2-.1.1-.6-.2-.5-6.9 2.9-13.3 8-18 14zm-7.4 1.2c-.2.2.2.5.4.3 5.6-6 11.5-10.4 19-13.9.3-.1.1-.6-.2-.5-7.5 2.4-14.6 7.7-19.2 14.1zm-8.8 6.5c-.2.2.1.5.3.4 7.2-4.5 12.6-13.1 13.1-21.6 0-.3-.4-.3-.4-.1-2.2 8.8-6 15.4-13 21.3zm-7.5 8.3v.3c0 .7.1 1.3.1 2 0 .3.4.3.4 0 .1-.8.2-1.7.2-2.5C61 34.5 67.8 27 75.1 18.9c.3-.3-.2-.7-.4-.4-7.2 6.8-14.4 14.8-17.7 24.3-.2-4.5-1.8-9-5.5-11.9-.3-.2-.8.2-.5.5 4.1 3.6 5 8.4 5.3 13.5zm-2.2 4.9c-4.9 2.1-9.2-.6-10.8-5.4-.1-.3-.7-.3-.7.1.4 5.8 6.9 8.4 11.6 5.7.3 0 .1-.5-.1-.4zm1.4-2.4c-4.3 2.3-8.6.8-11.6-2.8-.2-.2-.5.1-.4.3 2.7 3.8 8.2 6.7 12.3 3.1.4-.3 0-.8-.3-.6zm-2 3.4c-5.9 4.5-8.7 11.6-8.9 18.9 0 .3.6.4.6.1 1.2-7.1 2.9-13.6 8.8-18.3.3-.4-.1-1-.5-.7zm-7.8 18.9c.8-2.7 3-4.7 5.6-5.8.4-.2.2-.7-.2-.6-3 .8-5.1 3.2-5.7 6.3-.1.2.2.3.3.1zm7-8.7C50.9 72.6 47 82.6 35.6 87.5c-.3.1-.1.6.2.5 11.9-2.7 16.7-16.2 17.7-27 .1-.4-.7-.5-.8 0zm101.2-13.2c.1.2.5.1.4-.2-1.8-5.5-6.8-9.8-12.1-12-.3-.1-.4.3-.2.5 5.2 3 8.6 6.9 11.9 11.7zm-7.1 1.6c1.9 5.5 6.3 10.8 10.8 14.4.2.2.6-.1.4-.3-3.6-4.8-7.9-8.8-10.8-14.2-.1-.4-.5-.2-.4.1zM47.2 83c0-.4-.6-.4-.6-.1-1.3 5.6.7 11.8 4.7 15.8.2.2.7-.1.5-.4-3.5-4.7-4.7-9.5-4.6-15.3zm105.4-5.7c-.3-.3-.7.2-.4.4 3.9 3.9 5.6 8.8 5.6 14.3 0 .3.5.4.6.1.8-5.6-1.6-11.1-5.8-14.8zm-91 9.5c-.1-7.1-5.2-12.6-4.5-20 0-.2-.4-.3-.4-.1-1.9 6.8 3.1 13.6 4.3 20.1.1.4.6.3.6 0zM72.8 56c-4.3-1.4-5.9-5-7.7-8.8-.1-.2-.5-.1-.4.2.9 3.1 2.6 7.1 5.7 8.6-1.7-.2-3.4-.5-5-1.1-1.9-.7-3.4-1.8-5.1-2.7-.2-.1-.4.2-.2.3.5.5 1 1 1.6 1.4-1.4 4.9-.7 10 .1 15 1.2 7.6 2.1 14.2-1 21.5-.2.4.3.6.5.3 3.1-4.4 3-10.2 2.4-15.3-.9-7.3-2.8-13.8-1.7-21.2 2.6 1.8 6.2 2.6 9.1 2.4.2 0 .3-.1.2-.3.5.1.9.2 1.5.2.3.1.3-.4 0-.5zm5.1-7c-3.5-1-7.2-1.3-10.6.2-.2.1-.1.4.2.4 6.5-1.2 14.3.2 19.5 4.6.3.2.6-.1.4-.4-2.1-2.6-6.3-3.9-9.5-4.8zm53.6-13.3c-.2 0-.2.4.1.4 2.5 0 4.1-2.3 5.2-4.3 1.6-2.7 2.6-5.9 2.2-9 0-.3-.5-.4-.5-.1-.4 2.4-.7 4.8-1.7 7.1-1 2.2-2.7 5.5-5.3 5.9z" fill="#452c22" stroke-width="none" opacity="1"></path></g><g id="svga-group-glasses-single-move" transform="matrix(1,0,0,1,0,0)"><g id="svga-group-glasses-single"><path id="SvgjsPath13024" d="M79.1 71.7c9.4 0 17 7.6 17 17s-7.6 17-17 17-17-7.6-17-17 7.6-17 17-17z" fill="url(#SvgjsLinearGradient13025)" opacity="1"></path><path id="SvgjsPath13032" d="M121.5 71.7c9.4 0 17 7.6 17 17s-7.6 17-17 17-17-7.6-17-17 7.6-17 17-17z" fill="url(#SvgjsLinearGradient13033)" opacity="1"></path><path id="SvgjsPath13040" d="M142.6 84.9c-2.3-.1-3.8-1.8-4.6-3-2.7-6.4-9-11-16.4-11-8 0-14.7 5.3-17 12.5-.2 0-.5 0-.9-.1-1.3-.3-2.2-1.1-3.3-1.1-1.1 0-2 .8-3.3 1.1-.4.1-.7.1-.9.1-2.2-7.2-9-12.5-17-12.5-7.4 0-13.7 4.5-16.4 11-.8 1.2-2.3 2.9-4.6 3 0 0-.3 2.6-.1 4.9 0 0 2.7.4 3.8 3 1.8 7.8 8.9 13.7 17.3 13.7 9.5 0 17.2-7.5 17.7-16.8.8-2.4 2-3.4 2.7-3.8.5-.3 1-.3 1.5 0 .8.4 2 1.4 2.8 3.8.5 9.4 8.2 16.8 17.7 16.8 8.4 0 15.4-5.9 17.3-13.7 1.1-2.5 3.8-3 3.8-3 .2-2.3-.1-4.9-.1-4.9zm-61.4 19.8C70.6 106 61.7 97.1 63 86.6c.9-7.2 6.7-13 13.9-13.9 10.6-1.3 19.5 7.6 18.2 18.2-.9 7.1-6.7 12.9-13.9 13.8zm42.4 0c-10.6 1.3-19.5-7.6-18.2-18.2.9-7.2 6.7-13 13.9-13.9 10.6-1.3 19.5 7.6 18.2 18.2-.8 7.2-6.7 13-13.9 13.9z" fill="#26120b" stroke-width="none" opacity="1"></path><path id="SvgjsPath13041" d="M142.8 87.3c0-.4 0-.8-.1-1.2 0-.4-.1-.8-.1-1.2-1-.1-1.9-.4-2.6-.9-.8-.6-1.4-1.3-1.9-2.1-1.4-3.4-3.8-6.3-6.9-8.3-3.1-2-6.8-3-10.4-2.8-3.7.2-7.3 1.5-10.2 3.7-2.9 2.2-5 5.3-6.1 8.7-.6 0-1.3-.2-1.9-.5-.7-.3-1.4-.7-2.2-.7-.8 0-1.5.4-2.2.7-.6.3-1.3.5-1.9.5-1.1-3.4-3.3-6.5-6.1-8.7-2.9-2.2-6.5-3.6-10.1-3.7-3.7-.2-7.3.8-10.4 2.8s-5.5 4.9-6.9 8.2c-.5.8-1.2 1.5-1.9 2-.8.5-1.7.9-2.6.9H58v.1c-.2 1.6-.2 3.3-.1 4.9v.1h.1c.8.2 1.6.5 2.2 1 .7.5 1.2 1.1 1.5 1.9 1 4.2 3.5 7.9 6.9 10.4s7.8 3.8 12.1 3.4c4.3-.4 8.4-2.3 11.3-5.4 3-3.1 4.8-7.2 5-11.5.3-.8.7-1.7 1.2-2.4.3-.3.6-.7.9-.9.4-.3.7-.5 1.1-.5s.8.2 1.1.5c.3.3.7.6.9.9.5.7.9 1.5 1.2 2.4.2 4.3 2 8.4 5 11.5s7.1 5.1 11.3 5.4c4.3.4 8.6-.8 12.1-3.4 3.4-2.5 6-6.3 6.9-10.4.3-.7.9-1.4 1.5-1.9s1.4-.9 2.2-1h.1v-.1c.3-.7.3-1.6.3-2.4zm-.2 2.4c-.8.2-1.6.5-2.2 1-.7.5-1.2 1.2-1.6 2-1 4.1-3.5 7.8-6.9 10.2-3.4 2.5-7.7 3.6-11.8 3.2-4.2-.4-8.1-2.3-11-5.4-2.9-3-4.7-7.1-4.9-11.2-.3-.9-.7-1.8-1.3-2.6-.3-.4-.6-.7-1-1s-.8-.6-1.4-.6-1.1.3-1.4.6c-.4.3-.7.7-1 1-.6.8-1 1.7-1.3 2.6-.2 4.2-2 8.2-4.9 11.2s-6.9 4.9-11 5.3c-4.2.4-8.4-.8-11.8-3.2-3.4-2.4-5.9-6.1-6.9-10.2-.4-.8-.9-1.5-1.6-2-.7-.5-1.4-.8-2.2-1-.4-1.5-.4-3.1-.2-4.6.9-.1 1.9-.4 2.6-.9.8-.6 1.4-1.3 2-2.1 1.4-3.3 3.8-6.2 6.9-8.1 3-1.9 6.7-2.9 10.3-2.7 3.6.2 7.1 1.5 9.9 3.7s5 5.3 6 8.7v.1h.1c.8.1 1.6-.2 2.2-.5.7-.3 1.3-.7 2-.7s1.3.4 2 .7c.7.3 1.4.6 2.2.6h.2l.1-.2c1.1-3.4 3.2-6.5 6-8.7s6.3-3.5 9.9-3.7 7.2.8 10.3 2.7c3 1.9 5.5 4.8 6.9 8.1.5.8 1.2 1.5 2 2.1s1.7.9 2.7.9l.1 1.2c0 .4 0 .8.1 1.2 0 .7 0 1.5-.1 2.3zm-47.2-3.2c-.5-4.3-2.9-8.3-6.3-10.9-3.4-2.7-7.9-3.7-12.1-3.2-2.1.3-4.2 1-6 2.1s-3.4 2.5-4.8 4.2c-1.3 1.7-2.3 3.6-2.9 5.7-.6 2.1-.7 4.2-.5 6.4.5 4.3 2.9 8.3 6.3 10.8 3.4 2.6 7.9 3.6 12.1 3.1s8.2-2.8 10.8-6.1c1.3-1.7 2.3-3.6 2.9-5.7.3-1 .5-2.1.5-3.2.1-.5.1-1.1 0-1.6 0-.5.1-1 0-1.6zm-3.6 11.9c-1.3 1.7-2.8 3.1-4.7 4.2-1.8 1.1-3.8 1.8-5.9 2.1-4.2.5-8.6-.7-11.8-3.3-3.3-2.6-5.5-6.4-6.1-10.6-.2-2.1-.2-4.2.3-6.2s1.5-4 2.7-5.6c2.5-3.4 6.5-5.6 10.7-6.1 4.2-.4 8.5.7 11.8 3.3 3.3 2.6 5.6 6.4 6.1 10.6.4 3.9-.6 8.3-3.1 11.6zm46-11.9c-.5-4.3-2.9-8.3-6.3-10.9-3.4-2.7-7.9-3.7-12.1-3.2-2.1.3-4.2 1-6 2.1s-3.4 2.5-4.8 4.2c-1.3 1.7-2.3 3.6-2.9 5.7s-.7 4.2-.5 6.4c.5 4.3 2.9 8.3 6.3 10.8 3.4 2.6 7.9 3.6 12.1 3.1s8.2-2.8 10.8-6.1c1.3-1.7 2.3-3.6 2.9-5.7.3-1 .5-2.1.5-3.2.1-.5.1-1.1 0-1.6.1-.5.1-1 0-1.6zm-3.6 11.9c-1.3 1.7-2.8 3.1-4.6 4.2s-3.8 1.8-5.9 2.1c-4.2.5-8.6-.7-11.8-3.3-3.3-2.6-5.5-6.4-6.1-10.6-.2-2.1-.2-4.2.3-6.2s1.4-4 2.7-5.6c2.5-3.4 6.5-5.6 10.7-6.1 4.2-.4 8.5.7 11.8 3.3 3.3 2.6 5.6 6.4 6.1 10.6.4 3.9-.6 8.3-3.2 11.6z" fill="#070201" stroke-width="none" opacity="1"></path></g></g></g></g></g><rect id="svga-credit-rect" width="200" height="15" x="0" y="185" fill="#ecf0f1" opacity="0.5" style="display: none;"></rect><text id="svga-credit-text" font-family="Avenir Next, Roboto, Helvetica, Arial, sans-serif" font-size="10px" text-anchor="start" font-weight="400" size="10px" anchor="start" weight="400" fill="#333333" x="33.402061462402344" y="182.71133995056152" style="display: none;"><tspan id="SvgjsTspan12779" dy="13" x="33.402061462402344">Created on AvatarMaker.com</tspan></text></g><defs id="SvgjsDefs12726"><linearGradient id="SvgjsLinearGradient13025" x1="79.1" y1="71.7" x2="79.1" y2="105.64" gradientUnits="userSpaceOnUse" class="svga-on-canvas-glasses-gradient-single-0-null"><stop id="SvgjsStop13026" stop-opacity="1" stop-color="#b4c0cf" offset="0" ></stop><stop id="SvgjsStop13027" stop-opacity="0.9374" stop-color="#abbace" offset="0.0626" ></stop><stop id="SvgjsStop13028" stop-opacity="0.679" stop-color="#8aa3ca" offset="0.321" ></stop><stop id="SvgjsStop13029" stop-opacity="0.4305" stop-color="#7393c6" offset="0.5695" ></stop><stop id="SvgjsStop13030" stop-opacity="0.1987" stop-color="#6589c5" offset="0.8013" ></stop><stop id="SvgjsStop13031" stop-opacity="0" stop-color="#6086c4" offset="1" ></stop></linearGradient><linearGradient id="SvgjsLinearGradient13033" x1="121.5" y1="71.7" x2="121.5" y2="105.64" gradientUnits="userSpaceOnUse" class="svga-on-canvas-glasses-gradient-single-1-null"><stop id="SvgjsStop13034" stop-opacity="1" stop-color="#b4c0cf" offset="0" ></stop><stop id="SvgjsStop13035" stop-opacity="0.9374" stop-color="#abbace" offset="0.0626" ></stop><stop id="SvgjsStop13036" stop-opacity="0.679" stop-color="#8aa3ca" offset="0.321" ></stop><stop id="SvgjsStop13037" stop-opacity="0.4305" stop-color="#7393c6" offset="0.5695" ></stop><stop id="SvgjsStop13038" stop-opacity="0.1987" stop-color="#6589c5" offset="0.8013" ></stop><stop id="SvgjsStop13039" stop-opacity="0" stop-color="#6086c4" offset="1" ></stop></linearGradient></defs></svg>